<?xml version="1.0" standalone="no"?>
<!DOCTYPE svg PUBLIC "-//W3C//DTD SVG 20010904//EN"
 "http://www.w3.org/TR/2001/REC-SVG-20010904/DTD/svg10.dtd">
<svg version="1.0" xmlns="http://www.w3.org/2000/svg"
 width="814.000000pt" height="840.000000pt" viewBox="0 0 814.000000 840.000000"
 preserveAspectRatio="xMidYMid meet">

<g transform="translate(0.000000,840.000000) scale(0.100000,-0.100000)"
fill="#000000" stroke="none">
<path d="M3825 7994 c-254 -21 -495 -60 -720 -119 -1411 -368 -2505 -1544
-2769 -2975 -48 -260 -60 -405 -60 -700 0 -295 12 -440 60 -700 264 -1432
1357 -2606 2769 -2975 343 -90 584 -119 965 -119 307 0 456 12 705 60 1467
281 2629 1382 2985 2827 79 323 105 542 105 907 0 363 -25 582 -106 908 -166
676 -508 1282 -1004 1777 -607 608 -1387 986 -2245 1090 -129 16 -573 28 -685
19z m510 -364 c444 -38 830 -141 1213 -326 368 -177 667 -388 952 -674 548
-548 882 -1230 987 -2015 24 -183 24 -648 0 -829 -106 -790 -438 -1467 -987
-2016 -795 -795 -1903 -1148 -3015 -959 -383 65 -787 210 -1128 406 -90 52
-97 68 -11 25 80 -40 270 -114 375 -146 603 -182 1253 -164 1837 51 175 64
436 197 589 299 174 116 295 215 443 364 447 447 723 1002 817 1645 24 169 24
580 0 755 -48 339 -137 624 -293 932 -136 267 -305 499 -524 718 -69 69 -168
160 -220 202 -307 247 -697 445 -1072 543 -1138 297 -2325 -117 -3028 -1056
-300 -401 -479 -848 -551 -1379 -17 -123 -18 -535 -1 -659 7 -51 11 -96 8 -98
-9 -10 -55 239 -78 427 -17 137 -17 583 0 720 57 460 173 844 371 1225 323
623 843 1143 1466 1466 385 200 812 329 1220 369 61 5 126 12 145 13 82 8 374
6 485 -3z m376 -2246 c170 -32 336 -122 467 -253 113 -113 119 -97 -75 -195
l-168 -84 -56 52 c-171 158 -414 182 -605 58 -145 -95 -217 -230 -216 -408 0
-135 25 -200 241 -638 183 -372 203 -407 261 -469 117 -126 273 -177 439 -145
216 43 382 192 422 380 16 71 5 207 -21 288 -17 51 -82 194 -95 208 -2 2 -101
-44 -220 -102 -120 -58 -222 -106 -227 -106 -13 0 -150 292 -141 301 4 4 178
91 386 193 l378 185 118 -237 c158 -319 191 -428 191 -629 0 -136 -21 -225
-80 -349 -101 -208 -308 -376 -566 -457 -386 -122 -764 25 -967 376 -74 127
-406 808 -431 883 -40 122 -56 210 -56 321 0 229 73 407 235 568 213 214 510
311 786 259z m-2305 -1479 c190 -151 351 -275 358 -275 7 0 203 58 436 130
234 71 426 128 428 126 2 -2 -67 -191 -152 -420 -86 -230 -156 -422 -156 -428
0 -6 115 -175 255 -376 141 -200 253 -367 250 -370 -3 -3 -193 2 -423 11 -229
10 -431 17 -449 17 -31 0 -46 -18 -303 -361 -150 -198 -273 -359 -275 -357 -2
2 -59 199 -125 438 -66 239 -122 435 -123 436 -1 0 -189 65 -417 144 -228 78
-421 145 -428 149 -9 5 120 96 367 259 l381 251 0 143 c0 284 13 758 21 758 5
0 164 -124 355 -275z"/>
</g>
</svg>
